<svg width="147" height="22" viewBox="0 0 147 22" fill="none" xmlns="http://www.w3.org/2000/svg">
<path d="M49.6952 0L40.895 0L40.895 21.9328H44.2929V15.1522V13.8794V10.7951V9.05708V3.13326L49.6219 3.13326C52.0175 3.13326 52.9953 5.1405 52.9953 6.9764C52.9953 8.86125 51.9197 10.7951 49.4997 10.7951L45.4173 10.7951V13.8794L49.6952 13.8794C54.3887 13.8794 56.3687 10.4524 56.3687 6.9764C56.3687 3.50044 54.3887 0 49.6952 0Z" fill="white"/>
<path d="M69.59 0L60.7898 0L60.7898 21.9328H64.1877V15.1522V13.8794V10.7951V9.05708V3.13326L69.5167 3.13326C71.9123 3.13326 72.8901 5.1405 72.8901 6.9764C72.8901 8.86125 71.8145 10.7951 69.3944 10.7951L65.3121 10.7951V13.8794L69.59 13.8794C74.2834 13.8794 76.2635 10.4524 76.2635 6.9764C76.2635 3.50044 74.2834 0 69.59 0Z" fill="white"/>
<path d="M3.42393 15.4174C3.52317 17.1596 5.1607 18.9257 7.8403 18.9257C10.4455 18.9257 11.8101 17.5892 12.0334 16.0141C12.1574 14.0332 10.5695 13.0069 8.5102 12.5296L5.70654 11.8614C0.94282 10.6204 0.198489 7.9951 0.198489 6.10969C0.198489 2.45819 3.62242 0 7.51775 0C11.6364 0 14.7378 2.41046 14.7378 6.32448L11.3138 6.32448C11.3138 4.34361 9.77556 3.10257 7.44332 3.10257C5.384 3.10257 3.5976 4.31974 3.5976 6.06195C3.5976 6.89726 3.92015 8.20989 6.57493 8.85427L9.4282 9.54638C13.9438 10.692 15.7798 13.0785 15.4325 16.1811C15.0851 19.5224 12.083 21.9328 7.8403 21.9328C3.22544 21.9328 0 18.9018 0 15.4174H3.42393Z" fill="white"/>
<path d="M32.0083 16.5061L34.086 22H37.6133L29.4474 0L25.8235 0L17.6576 21.9755H21.1849L29.1136 21.9755V18.9342L22.1996 18.9097L27.6113 4.24303L30.8728 13.4649L32.0083 16.5061Z" fill="white"/>
<path d="M97.263 0V21.9328H93.8597V10.3789L84.0388 15.2746V21.9328H80.6841V0L84.0388 0V11.9211L93.8597 7.02536V0L97.263 0Z" fill="white"/>
<path d="M103.895 0L107.211 0V21.9328H103.895V0Z" fill="white"/>
<path d="M116.167 10.7951V21.9328H112.737V0L121.374 0C126.113 0 128.112 3.50044 128.112 6.9764C128.112 10.1586 126.483 13.3408 122.411 13.757L128.21 21.9328H124.064L116.414 10.7951H116.439L121.128 10.7951C123.596 10.7951 124.583 8.86125 124.583 6.9764C124.583 5.1405 123.62 3.13326 121.251 3.13326L116.192 3.13326V10.7951" fill="white"/>
<path d="M132.658 0L146.688 0V3.10878L132.658 3.10878V0ZM132.658 9.62009L145.363 9.62009V12.7044L136.243 12.7044V18.8485L147 18.8485V21.9328L132.632 21.9328" fill="white"/>
</svg>
